<svg width="16" height="16" viewBox="0 0 16 16" fill="none" xmlns="http://www.w3.org/2000/svg">
<path d="M3.55594 7.98239e-07L15.1111 2.93145e-07C15.3469 2.82841e-07 15.573 0.0936463 15.7397 0.260341C15.9064 0.427035 16 0.65312 16 0.888861L16 12.4441C16 12.6798 15.9064 12.9059 15.7397 13.0726C15.573 13.2393 15.3469 13.3329 15.1111 13.3329C14.8754 13.3329 14.6493 13.2393 14.4826 13.0726C14.3159 12.9059 14.2223 12.6798 14.2223 12.4441L14.2223 3.03435L1.51823 15.7395C1.35144 15.9063 1.12523 16 0.889356 16C0.653484 16 0.427273 15.9063 0.260486 15.7395C0.0936996 15.5727 -2.50499e-08 15.3465 -3.8875e-08 15.1106C-5.27e-08 14.8748 0.0936996 14.6486 0.260486 14.4818L12.9656 1.77772L3.55594 1.77772C3.3202 1.77772 3.09411 1.68408 2.92742 1.51738C2.76073 1.35069 2.66708 1.1246 2.66708 0.888862C2.66708 0.653121 2.76073 0.427035 2.92742 0.260342C3.09411 0.0936469 3.3202 8.08544e-07 3.55594 7.98239e-07Z" fill="white"/>
</svg>
