<svg width="35" height="35" viewBox="0 0 35 35" fill="none" xmlns="http://www.w3.org/2000/svg">
<path opacity="0.4" d="M17.7673 31.9068C25.6953 31.9068 32.1221 25.4799 32.1221 17.552C32.1221 9.6241 25.6953 3.19727 17.7673 3.19727C9.83944 3.19727 3.4126 9.6241 3.4126 17.552C3.4126 25.4799 9.83944 31.9068 17.7673 31.9068Z" fill="white"/>
<path d="M19.2881 17.5524L22.5896 14.2508C23.0059 13.8345 23.0059 13.1455 22.5896 12.7292C22.1734 12.3129 21.4843 12.3129 21.068 12.7292L17.7665 16.0308L14.4649 12.7292C14.0486 12.3129 13.3595 12.3129 12.9433 12.7292C12.527 13.1455 12.527 13.8345 12.9433 14.2508L16.2448 17.5524L12.9433 20.854C12.527 21.2703 12.527 21.9593 12.9433 22.3756C13.1586 22.5909 13.4313 22.6914 13.7041 22.6914C13.9768 22.6914 14.2495 22.5909 14.4649 22.3756L17.7665 19.074L21.068 22.3756C21.2834 22.5909 21.5561 22.6914 21.8288 22.6914C22.1016 22.6914 22.3743 22.5909 22.5896 22.3756C23.0059 21.9593 23.0059 21.2703 22.5896 20.854L19.2881 17.5524Z" fill="white"/>
</svg>
