<svg width="74" height="92" viewBox="0 0 74 92" fill="none" xmlns="http://www.w3.org/2000/svg">
<rect width="74" height="92" rx="10" fill="white"/>
<path d="M49.2681 56.6216L24.6871 56.6216C23.3044 56.6216 22.5362 55.097 23.3044 54.0298L35.5949 35.1247C36.2094 34.0575 37.7457 34.0575 38.5139 35.1247L50.8044 54.0298C51.4189 55.2495 50.4971 56.6216 49.2681 56.6216Z" stroke="black" stroke-width="1.6" stroke-miterlimit="10" stroke-linecap="round" stroke-linejoin="round"/>
<path d="M39.9271 49.7786C39.8042 50.176 39.5888 50.5374 39.2993 50.832C39.0098 51.1266 38.6546 51.3458 38.264 51.4708C38.207 51.4888 38.1476 51.4981 38.0879 51.4982C37.9476 51.4983 37.8119 51.4472 37.7054 51.3543C37.5989 51.2613 37.5286 51.1327 37.5073 50.9915C37.4861 50.8504 37.5152 50.7062 37.5894 50.585C37.6636 50.4639 37.778 50.3738 37.9118 50.331C38.1223 50.2637 38.3137 50.1457 38.4698 49.9869C38.6258 49.8282 38.7418 49.6334 38.8079 49.4192C38.8311 49.3444 38.8684 49.2749 38.918 49.2148C38.9675 49.1546 39.0281 49.105 39.0965 49.0687C39.2345 48.9955 39.3955 48.981 39.5441 49.0285C39.6176 49.052 39.6859 49.0901 39.745 49.1405C39.8041 49.1908 39.8529 49.2526 39.8885 49.3221C39.9242 49.3917 39.946 49.4677 39.9528 49.5458C39.9596 49.624 39.9512 49.7027 39.928 49.7776L39.9271 49.7786ZM42 49.0021C42 50.2165 41.5259 51.3812 40.682 52.2399C39.8381 53.0987 38.6935 53.5811 37.5 53.5811C36.3065 53.5811 35.1619 53.0987 34.318 52.2399C33.4741 51.3812 33 50.2165 33 49.0021C33 47.5682 33.5513 46.1065 34.6376 44.6581C34.6879 44.591 34.7517 44.5355 34.8246 44.4953C34.8975 44.4551 34.978 44.431 35.0608 44.4248C35.1435 44.4185 35.2266 44.4302 35.3046 44.459C35.3825 44.4878 35.4536 44.5331 35.5132 44.5919L36.4762 45.543L37.4511 42.825C37.4833 42.7351 37.5363 42.6544 37.6056 42.5897C37.6749 42.5249 37.7585 42.4781 37.8493 42.4531C37.9402 42.4281 38.0355 42.4257 38.1275 42.4461C38.2194 42.4665 38.3051 42.5091 38.3775 42.5702C39.4663 43.49 42 45.9586 42 49.0021ZM40.8261 49.0021C40.8261 46.9262 39.3289 45.1006 38.2572 44.0604L37.2686 46.8177C37.2351 46.9113 37.1791 46.9948 37.1057 47.0608C37.0323 47.1267 36.9438 47.1729 36.8484 47.1952C36.7529 47.2174 36.6535 47.215 36.5593 47.1882C36.465 47.1614 36.3787 47.111 36.3085 47.0417L35.1869 45.9342C34.5163 46.9804 34.1739 48.0097 34.1739 49.0021C34.1739 49.8997 34.5243 50.7606 35.1481 51.3953C35.7719 52.03 36.6179 52.3866 37.5 52.3866C38.3821 52.3866 39.2281 52.03 39.8519 51.3953C40.4757 50.7606 40.8261 49.8997 40.8261 49.0021Z" fill="black"/>
</svg>
