<svg width="74" height="92" viewBox="0 0 74 92" fill="none" xmlns="http://www.w3.org/2000/svg">
<rect width="74" height="92" rx="10" fill="white"/>
<path d="M34.2012 52.5094C34.2012 54.1756 35.4799 55.519 37.0687 55.519H40.3108C41.6928 55.519 42.8166 54.3436 42.8166 52.8969C42.8166 51.3211 42.132 50.7656 41.1116 50.404L35.9062 48.5956C34.8858 48.234 34.2012 47.6786 34.2012 46.1027C34.2012 44.6561 35.3249 43.4806 36.707 43.4806H39.9491C41.5378 43.4806 42.8166 44.824 42.8166 46.4902" stroke="#292D32" stroke-width="1.7" stroke-linecap="round" stroke-linejoin="round"/>
<path d="M38.5 41.75V57.25" stroke="#292D32" stroke-width="1.7" stroke-linecap="round" stroke-linejoin="round"/>
<path d="M38.5 62.4167C45.6337 62.4167 51.4167 56.6337 51.4167 49.5C51.4167 42.3663 45.6337 36.5833 38.5 36.5833C31.3664 36.5833 25.5834 42.3663 25.5834 49.5C25.5834 56.6337 31.3664 62.4167 38.5 62.4167Z" stroke="#292D32" stroke-width="1.7" stroke-linecap="round" stroke-linejoin="round"/>
</svg>
