<svg width="74" height="92" viewBox="0 0 74 92" fill="none" xmlns="http://www.w3.org/2000/svg">
<rect width="74" height="92" rx="10" fill="white"/>
<path d="M42.4 58.8933C48.12 57.3867 52.3333 52.1867 52.3333 46C52.3333 38.64 46.4133 32.6667 39 32.6667C30.1066 32.6667 25.6666 40.08 25.6666 40.08M25.6666 40.08V34M25.6666 40.08H28.3466H31.5866" stroke="black" stroke-width="1.8" stroke-linecap="round" stroke-linejoin="round"/>
<path d="M25.6666 46C25.6666 53.36 31.64 59.3333 39 59.3333" stroke="black" stroke-width="1.8" stroke-linecap="round" stroke-linejoin="round" stroke-dasharray="3 3"/>
<path d="M39.5 52.75C42.9518 52.75 45.75 49.9518 45.75 46.5C45.75 43.0482 42.9518 40.25 39.5 40.25C36.0482 40.25 33.25 43.0482 33.25 46.5C33.25 49.9518 36.0482 52.75 39.5 52.75Z" stroke="black" stroke-width="1.25" stroke-linecap="round" stroke-linejoin="round"/>
<path d="M36.9999 40.875H37.6249C36.4061 44.525 36.4061 48.475 37.6249 52.125H36.9999" stroke="black" stroke-width="1.25" stroke-linecap="round" stroke-linejoin="round"/>
<path d="M41.375 40.875C42.5938 44.525 42.5938 48.475 41.375 52.125" stroke="black" stroke-width="1.25" stroke-linecap="round" stroke-linejoin="round"/>
<path d="M33.875 49V48.375C37.525 49.5938 41.475 49.5938 45.125 48.375V49" stroke="black" stroke-width="1.25" stroke-linecap="round" stroke-linejoin="round"/>
<path d="M33.875 44.625C37.525 43.4063 41.475 43.4063 45.125 44.625" stroke="black" stroke-width="1.25" stroke-linecap="round" stroke-linejoin="round"/>
</svg>
