<svg width="33" height="39" viewBox="0 0 33 39" fill="none" xmlns="http://www.w3.org/2000/svg">
<path d="M16.5 33C20.6938 29.1733 23.8047 28.264 25.8328 25.1371C27.8609 22.0102 28.875 19.2345 28.875 16.81C28.875 13.0858 27.6801 10.0368 25.2904 7.6629C22.9006 5.289 19.9705 4.10137 16.5 4.1C13.0281 4.1 10.0973 5.28763 7.70756 7.6629C5.31781 10.0382 4.12362 13.0872 4.125 16.81C4.125 19.2358 5.13906 22.0122 7.16719 25.1391C9.19531 28.2661 12.3062 29.1747 16.5 33ZM16.5 39C10.9656 34.3192 6.83237 31.9718 4.10025 27.9579C1.36812 23.944 0.001375 20.228 0 16.81C0 11.685 1.65894 7.60208 4.97681 4.56125C8.29469 1.52042 12.1357 0 16.5 0C20.8656 0 24.7074 1.52042 28.0252 4.56125C31.3431 7.60208 33.0014 11.685 33 16.81C33 20.2267 31.6332 23.9426 28.8997 27.9579C26.1662 31.9732 22.033 34.3205 16.5 39ZM10.3125 22.55H14.4375V16.9125H18.5625V22.55H22.6875V12.8125L16.5 8.7125L10.3125 12.8125V22.55Z" fill="#0B0B0B" fill-opacity="0.5"/>
</svg>
