<svg width="205" height="60" viewBox="0 0 205 60" fill="none" xmlns="http://www.w3.org/2000/svg">
<path d="M5 30.5H12V21C13.6377 19.5467 15.8542 23.9234 19.5 30.5H28.5C25.1369 24.8012 23.5 21 20.5 20C29 18 27 8 19.5 7.5H5V30.5Z" fill="white"/>
<path d="M31 30.5V7.5H51V12.5H38.5V16H50V21H38.5V25.5H51V30.5H31Z" fill="white"/>
<path d="M9.5 54H4L4.5 32H13L16.5 45.5L19.5 32H28V54H23L22.5 37.5L18.5 54H14L9.5 37.5V54Z" fill="white"/>
<path d="M15.5 17C19.5 17 19 12 15.5 12H11V17H15.5Z" fill="black" style="mix-blend-mode:darken"/>
<path d="M47.75 41.6313V41.5201L47.741 41.4093C47.4026 37.2296 44.6216 34.25 41 34.25C37.3784 34.25 34.5974 37.2296 34.259 41.4093L34.25 41.5201V41.6313V44.0062C34.25 46.2937 34.8982 48.2968 36.2249 49.7408C37.5634 51.1978 39.3818 51.8446 41.163 51.7388C44.7667 51.5249 47.75 48.3932 47.75 44.0062V41.6313Z" stroke="white" stroke-width="5.5"/>
<rect x="1" y="4" width="53" height="53" stroke="white" stroke-width="2"/>
<path d="M85.8477 28H76.2852C74.6328 25.4688 73.2559 23.4531 72.1543 21.9531C71.0645 20.4531 69.7051 18.7188 68.0762 16.75H67.1094V24.3262C67.1094 24.748 67.1855 25.1055 67.3379 25.3984C67.502 25.6914 67.8066 25.9375 68.252 26.1367C68.4746 26.2305 68.8203 26.3301 69.2891 26.4355C69.7695 26.5293 70.1797 26.5938 70.5195 26.6289V28H57.2129V26.6289C57.5527 26.5938 57.998 26.5469 58.5488 26.4883C59.1113 26.418 59.5098 26.3359 59.7441 26.2422C60.1895 26.0547 60.4883 25.8203 60.6406 25.5391C60.793 25.2461 60.8691 24.877 60.8691 24.4316V6.83594C60.8691 6.41406 60.8047 6.0625 60.6758 5.78125C60.5469 5.5 60.2363 5.25391 59.7441 5.04297C59.3691 4.89062 58.9238 4.76172 58.4082 4.65625C57.9043 4.55078 57.5059 4.47461 57.2129 4.42773V3.05664H71.2051C74.334 3.05664 76.707 3.54883 78.3242 4.5332C79.9531 5.50586 80.7676 6.98242 80.7676 8.96289C80.7676 10.709 80.2637 12.1152 79.2559 13.1816C78.2598 14.2363 76.7363 15.0625 74.6855 15.6602C75.4824 16.6914 76.4082 17.8867 77.4629 19.2461C78.5293 20.6055 79.6367 21.9941 80.7852 23.4121C81.1484 23.8691 81.6406 24.4316 82.2617 25.0996C82.8945 25.7559 83.4512 26.1602 83.9316 26.3125C84.2012 26.3945 84.541 26.4648 84.9512 26.5234C85.373 26.582 85.6719 26.6172 85.8477 26.6289V28ZM73.877 9.45508C73.877 7.79102 73.4082 6.57812 72.4707 5.81641C71.5449 5.04297 70.2207 4.65625 68.498 4.65625H67.1094V15.0977H68.4453C70.168 15.0977 71.5039 14.6465 72.4531 13.7441C73.4023 12.8418 73.877 11.4121 73.877 9.45508ZM108.049 9.41992H106.713C106.373 8.4707 105.787 7.50977 104.955 6.53711C104.123 5.56445 103.297 4.99023 102.477 4.81445C102.125 4.73242 101.633 4.68555 101 4.67383C100.379 4.65039 99.8633 4.63867 99.4531 4.63867H95.832V14.2715H98.3984C99.043 14.2715 99.6289 14.1953 100.156 14.043C100.684 13.8906 101.164 13.5977 101.598 13.1641C101.867 12.8945 102.137 12.4199 102.406 11.7402C102.688 11.0605 102.869 10.4688 102.951 9.96484H104.287V20.3711H102.951C102.881 19.8789 102.699 19.2637 102.406 18.5254C102.125 17.7754 101.855 17.2598 101.598 16.9785C101.211 16.5566 100.754 16.2695 100.227 16.1172C99.6992 15.9531 99.0898 15.8711 98.3984 15.8711H95.832V23.0605C95.832 23.8105 95.8848 24.4082 95.9902 24.8535C96.1074 25.2871 96.3184 25.6211 96.623 25.8555C96.916 26.0781 97.3145 26.2246 97.8184 26.2949C98.334 26.3652 99.0312 26.4004 99.9102 26.4004C100.32 26.4004 100.812 26.3945 101.387 26.3828C101.961 26.3711 102.465 26.3359 102.898 26.2773C103.391 26.2188 103.848 26.1309 104.27 26.0137C104.703 25.8965 105.025 25.7266 105.236 25.5039C105.799 24.9297 106.432 24.0566 107.135 22.8848C107.838 21.7012 108.301 20.8164 108.523 20.2305H109.807L109.332 28H85.9355V26.6289C86.2637 26.6055 86.709 26.5586 87.2715 26.4883C87.834 26.418 88.2324 26.3359 88.4668 26.2422C88.9121 26.0547 89.2109 25.8203 89.3633 25.5391C89.5156 25.2461 89.5918 24.877 89.5918 24.4316V6.83594C89.5918 6.41406 89.5273 6.06836 89.3984 5.79883C89.2695 5.51758 88.959 5.26563 88.4668 5.04297C88.1621 4.90234 87.7344 4.77344 87.1836 4.65625C86.6328 4.53906 86.2168 4.46289 85.9355 4.42773V3.05664H108.049V9.41992ZM146.193 28H132.676V26.6289C133.074 26.5938 133.561 26.5352 134.135 26.4531C134.721 26.3711 135.119 26.2832 135.33 26.1895C135.764 26.0137 136.074 25.7734 136.262 25.4688C136.449 25.1641 136.543 24.7773 136.543 24.3086V5.67578L127.965 27.5957H125.75C125.645 27.209 125.381 26.4414 124.959 25.293C124.549 24.1445 124.215 23.2246 123.957 22.5332L117.646 5.39453V20.5645C117.646 22.0176 117.74 23.125 117.928 23.8867C118.127 24.6367 118.443 25.1875 118.877 25.5391C119.17 25.7852 119.691 26.0195 120.441 26.2422C121.203 26.4648 121.736 26.5938 122.041 26.6289V28H111.318V26.6289C111.611 26.5938 112.086 26.5176 112.742 26.4004C113.41 26.2715 113.955 26.0547 114.377 25.75C114.846 25.4219 115.162 24.8711 115.326 24.0977C115.49 23.3125 115.572 22.1992 115.572 20.7578V8.40039C115.572 7.65039 115.479 7.0293 115.291 6.53711C115.104 6.0332 114.822 5.63477 114.447 5.3418C113.979 4.97852 113.498 4.74414 113.006 4.63867C112.514 4.5332 112.016 4.46289 111.512 4.42773V3.05664H122.99L129.143 19.5273L134.328 6.15039C134.504 5.6582 134.674 5.07227 134.838 4.39258C135.002 3.71289 135.09 3.26758 135.102 3.05664H146.158V4.42773C145.783 4.45117 145.391 4.49805 144.98 4.56836C144.57 4.63867 144.178 4.73242 143.803 4.84961C143.346 5.00195 143.041 5.24219 142.889 5.57031C142.748 5.89844 142.678 6.26172 142.678 6.66016V24.3262C142.678 24.748 142.748 25.1055 142.889 25.3984C143.041 25.6797 143.346 25.9258 143.803 26.1367C144.037 26.2422 144.418 26.3418 144.945 26.4355C145.484 26.5293 145.9 26.5938 146.193 26.6289V28ZM171.805 5.83398C173.035 6.95898 174.008 8.31836 174.723 9.91211C175.449 11.5059 175.812 13.3223 175.812 15.3613C175.812 17.1777 175.508 18.9062 174.898 20.5469C174.289 22.1875 173.41 23.5996 172.262 24.7832C171.055 26.0137 169.637 26.9746 168.008 27.666C166.379 28.3457 164.439 28.6855 162.189 28.6855C160.373 28.6855 158.656 28.3867 157.039 27.7891C155.422 27.1914 153.998 26.3242 152.768 25.1875C151.549 24.0742 150.582 22.7207 149.867 21.127C149.152 19.5332 148.795 17.7578 148.795 15.8008C148.795 13.7617 149.141 11.916 149.832 10.2637C150.535 8.59961 151.496 7.17578 152.715 5.99219C153.922 4.83203 155.352 3.94141 157.004 3.32031C158.668 2.6875 160.438 2.37109 162.312 2.37109C164.176 2.37109 165.922 2.67578 167.551 3.28516C169.191 3.89453 170.609 4.74414 171.805 5.83398ZM167.287 23.6758C167.814 22.6094 168.195 21.4023 168.43 20.0547C168.664 18.707 168.781 17.1836 168.781 15.4844C168.781 14.043 168.676 12.6426 168.465 11.2832C168.266 9.91211 167.92 8.69336 167.428 7.62695C166.924 6.56055 166.256 5.70508 165.424 5.06055C164.592 4.41602 163.555 4.09375 162.312 4.09375C160.191 4.09375 158.58 5.10156 157.479 7.11719C156.377 9.12109 155.826 11.957 155.826 15.625C155.826 17.1836 155.943 18.6543 156.178 20.0371C156.424 21.4199 156.805 22.627 157.32 23.6582C157.848 24.7012 158.516 25.5156 159.324 26.1016C160.133 26.6758 161.129 26.9629 162.312 26.9629C163.473 26.9629 164.469 26.6699 165.301 26.084C166.133 25.498 166.795 24.6953 167.287 23.6758ZM87.6582 58H74.1758V56.6289C74.4688 56.6055 74.8965 56.5703 75.459 56.5234C76.0215 56.4766 76.4082 56.4062 76.6191 56.3125C77.0527 56.1367 77.3516 55.9082 77.5156 55.627C77.6797 55.334 77.7617 54.9648 77.7617 54.5195V45.9238H67.1094V54.3262C67.1094 54.7246 67.1914 55.082 67.3555 55.3984C67.5312 55.7148 67.8242 55.9609 68.2344 56.1367C68.457 56.2305 68.8379 56.3301 69.377 56.4355C69.916 56.541 70.3555 56.6055 70.6953 56.6289V58H57.2129V56.6289C57.5059 56.6172 57.9336 56.582 58.4961 56.5234C59.0703 56.4531 59.4863 56.3711 59.7441 56.2773C60.166 56.125 60.459 55.8965 60.623 55.5918C60.7871 55.2754 60.8691 54.9062 60.8691 54.4844V36.8359C60.8691 36.4258 60.793 36.0801 60.6406 35.7988C60.5 35.5176 60.2012 35.2715 59.7441 35.0605C59.4043 34.9082 58.959 34.7734 58.4082 34.6562C57.8574 34.5273 57.459 34.4512 57.2129 34.4277V33.0566H70.6953V34.4277C70.332 34.4512 69.8984 34.5098 69.3945 34.6035C68.8906 34.6973 68.5039 34.7852 68.2344 34.8672C67.7773 35.0195 67.4727 35.2656 67.3203 35.6055C67.1797 35.9336 67.1094 36.2852 67.1094 36.6602V44.1133H77.7617V36.8359C77.7617 36.4258 77.6855 36.0801 77.5332 35.7988C77.3809 35.5176 77.0762 35.2715 76.6191 35.0605C76.3145 34.9199 75.9043 34.791 75.3887 34.6738C74.8848 34.5449 74.4805 34.4629 74.1758 34.4277V33.0566H87.6582V34.4277C87.2832 34.4512 86.8613 34.5039 86.3926 34.5859C85.9238 34.6562 85.502 34.75 85.127 34.8672C84.6816 35.0195 84.3828 35.2598 84.2305 35.5879C84.0781 35.916 84.002 36.2734 84.002 36.6602V54.3262C84.002 54.748 84.0781 55.1055 84.2305 55.3984C84.3828 55.6914 84.6816 55.9375 85.127 56.1367C85.4082 56.2539 85.8125 56.3594 86.3398 56.4531C86.8789 56.5469 87.3184 56.6055 87.6582 56.6289V58ZM113.129 35.834C114.359 36.959 115.332 38.3184 116.047 39.9121C116.773 41.5059 117.137 43.3223 117.137 45.3613C117.137 47.1777 116.832 48.9062 116.223 50.5469C115.613 52.1875 114.734 53.5996 113.586 54.7832C112.379 56.0137 110.961 56.9746 109.332 57.666C107.703 58.3457 105.764 58.6855 103.514 58.6855C101.697 58.6855 99.9805 58.3867 98.3633 57.7891C96.7461 57.1914 95.3223 56.3242 94.0918 55.1875C92.873 54.0742 91.9062 52.7207 91.1914 51.127C90.4766 49.5332 90.1191 47.7578 90.1191 45.8008C90.1191 43.7617 90.4648 41.916 91.1562 40.2637C91.8594 38.5996 92.8203 37.1758 94.0391 35.9922C95.2461 34.832 96.6758 33.9414 98.3281 33.3203C99.9922 32.6875 101.762 32.3711 103.637 32.3711C105.5 32.3711 107.246 32.6758 108.875 33.2852C110.516 33.8945 111.934 34.7441 113.129 35.834ZM108.611 53.6758C109.139 52.6094 109.52 51.4023 109.754 50.0547C109.988 48.707 110.105 47.1836 110.105 45.4844C110.105 44.043 110 42.6426 109.789 41.2832C109.59 39.9121 109.244 38.6934 108.752 37.627C108.248 36.5605 107.58 35.7051 106.748 35.0605C105.916 34.416 104.879 34.0938 103.637 34.0938C101.516 34.0938 99.9043 35.1016 98.8027 37.1172C97.7012 39.1211 97.1504 41.957 97.1504 45.625C97.1504 47.1836 97.2676 48.6543 97.502 50.0371C97.748 51.4199 98.1289 52.627 98.6445 53.6582C99.1719 54.7012 99.8398 55.5156 100.648 56.1016C101.457 56.6758 102.453 56.9629 103.637 56.9629C104.797 56.9629 105.793 56.6699 106.625 56.084C107.457 55.498 108.119 54.6953 108.611 53.6758ZM153.893 58H140.375V56.6289C140.773 56.5938 141.26 56.5352 141.834 56.4531C142.42 56.3711 142.818 56.2832 143.029 56.1895C143.463 56.0137 143.773 55.7734 143.961 55.4688C144.148 55.1641 144.242 54.7773 144.242 54.3086V35.6758L135.664 57.5957H133.449C133.344 57.209 133.08 56.4414 132.658 55.293C132.248 54.1445 131.914 53.2246 131.656 52.5332L125.346 35.3945V50.5645C125.346 52.0176 125.439 53.125 125.627 53.8867C125.826 54.6367 126.143 55.1875 126.576 55.5391C126.869 55.7852 127.391 56.0195 128.141 56.2422C128.902 56.4648 129.436 56.5938 129.74 56.6289V58H119.018V56.6289C119.311 56.5938 119.785 56.5176 120.441 56.4004C121.109 56.2715 121.654 56.0547 122.076 55.75C122.545 55.4219 122.861 54.8711 123.025 54.0977C123.189 53.3125 123.271 52.1992 123.271 50.7578V38.4004C123.271 37.6504 123.178 37.0293 122.99 36.5371C122.803 36.0332 122.521 35.6348 122.146 35.3418C121.678 34.9785 121.197 34.7441 120.705 34.6387C120.213 34.5332 119.715 34.4629 119.211 34.4277V33.0566H130.689L136.842 49.5273L142.027 36.1504C142.203 35.6582 142.373 35.0723 142.537 34.3926C142.701 33.7129 142.789 33.2676 142.801 33.0566H153.857V34.4277C153.482 34.4512 153.09 34.498 152.68 34.5684C152.27 34.6387 151.877 34.7324 151.502 34.8496C151.045 35.002 150.74 35.2422 150.588 35.5703C150.447 35.8984 150.377 36.2617 150.377 36.6602V54.3262C150.377 54.748 150.447 55.1055 150.588 55.3984C150.74 55.6797 151.045 55.9258 151.502 56.1367C151.736 56.2422 152.117 56.3418 152.645 56.4355C153.184 56.5293 153.6 56.5938 153.893 56.6289V58ZM178.572 39.4199H177.236C176.896 38.4707 176.311 37.5098 175.479 36.5371C174.646 35.5645 173.82 34.9902 173 34.8145C172.648 34.7324 172.156 34.6855 171.523 34.6738C170.902 34.6504 170.387 34.6387 169.977 34.6387H166.355V44.2715H168.922C169.566 44.2715 170.152 44.1953 170.68 44.043C171.207 43.8906 171.688 43.5977 172.121 43.1641C172.391 42.8945 172.66 42.4199 172.93 41.7402C173.211 41.0605 173.393 40.4688 173.475 39.9648H174.811V50.3711H173.475C173.404 49.8789 173.223 49.2637 172.93 48.5254C172.648 47.7754 172.379 47.2598 172.121 46.9785C171.734 46.5566 171.277 46.2695 170.75 46.1172C170.223 45.9531 169.613 45.8711 168.922 45.8711H166.355V53.0605C166.355 53.8105 166.408 54.4082 166.514 54.8535C166.631 55.2871 166.842 55.6211 167.146 55.8555C167.439 56.0781 167.838 56.2246 168.342 56.2949C168.857 56.3652 169.555 56.4004 170.434 56.4004C170.844 56.4004 171.336 56.3945 171.91 56.3828C172.484 56.3711 172.988 56.3359 173.422 56.2773C173.914 56.2188 174.371 56.1309 174.793 56.0137C175.227 55.8965 175.549 55.7266 175.76 55.5039C176.322 54.9297 176.955 54.0566 177.658 52.8848C178.361 51.7012 178.824 50.8164 179.047 50.2305H180.33L179.855 58H156.459V56.6289C156.787 56.6055 157.232 56.5586 157.795 56.4883C158.357 56.418 158.756 56.3359 158.99 56.2422C159.436 56.0547 159.734 55.8203 159.887 55.5391C160.039 55.2461 160.115 54.877 160.115 54.4316V36.8359C160.115 36.4141 160.051 36.0684 159.922 35.7988C159.793 35.5176 159.482 35.2656 158.99 35.043C158.686 34.9023 158.258 34.7734 157.707 34.6562C157.156 34.5391 156.74 34.4629 156.459 34.4277V33.0566H178.572V39.4199ZM192.898 58.668C191.375 58.668 189.951 58.4805 188.627 58.1055C187.314 57.7305 186.201 57.2852 185.287 56.7695L184.074 58H182.58L182.352 48.9824H183.863C184.203 49.8379 184.637 50.7402 185.164 51.6895C185.691 52.6387 186.301 53.4883 186.992 54.2383C187.707 55.0234 188.504 55.6621 189.383 56.1543C190.273 56.6465 191.311 56.8926 192.494 56.8926C194.088 56.8926 195.307 56.5059 196.15 55.7324C197.006 54.9473 197.434 53.9629 197.434 52.7793C197.434 51.8066 197.07 50.9922 196.344 50.3359C195.629 49.668 194.516 49.0938 193.004 48.6133C192.02 48.2969 191.111 48.0039 190.279 47.7344C189.459 47.4648 188.686 47.1895 187.959 46.9082C186.283 46.2402 185.035 45.2852 184.215 44.043C183.406 42.8008 183.002 41.4121 183.002 39.877C183.002 38.9043 183.213 37.9727 183.635 37.082C184.057 36.1797 184.672 35.3711 185.48 34.6562C186.254 33.9883 187.244 33.4434 188.451 33.0215C189.658 32.5996 190.971 32.3887 192.389 32.3887C193.771 32.3887 195.066 32.582 196.273 32.9688C197.48 33.3438 198.43 33.7246 199.121 34.1113L200.193 33.0566H201.723L201.863 41.5645H200.352C200 40.6504 199.584 39.7188 199.104 38.7695C198.635 37.8086 198.137 37.0117 197.609 36.3789C197.035 35.6992 196.373 35.1602 195.623 34.7617C194.873 34.3516 193.994 34.1465 192.986 34.1465C191.721 34.1465 190.684 34.5039 189.875 35.2188C189.078 35.9336 188.68 36.8184 188.68 37.873C188.68 38.8691 189.025 39.6836 189.717 40.3164C190.42 40.9492 191.51 41.5059 192.986 41.9863C193.854 42.2793 194.738 42.5723 195.641 42.8652C196.543 43.1582 197.346 43.4395 198.049 43.709C199.748 44.3652 201.037 45.2734 201.916 46.4336C202.807 47.582 203.252 49.0117 203.252 50.7227C203.252 51.8008 203 52.8438 202.496 53.8516C201.992 54.8594 201.312 55.6973 200.457 56.3652C199.52 57.1035 198.436 57.6719 197.205 58.0703C195.975 58.4688 194.539 58.668 192.898 58.668Z" fill="white"/>
</svg>
