<svg width="39" height="39" viewBox="0 0 39 39" fill="none" xmlns="http://www.w3.org/2000/svg">
<path d="M3.54541 19.5H8.50905V12.7636C9.67033 11.7331 11.242 14.8366 13.8272 19.5H20.209C17.8243 15.4591 16.6636 12.7636 14.5363 12.0546C20.5636 10.6364 19.1454 3.54546 13.8272 3.19092H3.54541V19.5Z" fill="white"/>
<path d="M21.9814 19.5V3.19092H36.1633V6.73637H27.2996V9.21819H35.4542V12.7636H27.2996V15.9546H36.1633V19.5H21.9814Z" fill="white"/>
<path d="M6.73667 36.1637H2.83667L3.19122 20.5637H9.21849L11.7003 30.1364L13.8276 20.5637H19.8549V36.1637H16.3094L15.9549 24.4637L13.1185 36.1637H9.92758L6.73667 24.4637V36.1637Z" fill="white"/>
<path d="M10.991 9.92729C13.8273 9.92729 13.4728 6.38184 10.991 6.38184H7.80005V9.92729H10.991Z" fill="black" style="mix-blend-mode:darken"/>
<path d="M24.2927 27.2357L24.2863 27.3142V27.3931V29.0771C24.2863 30.6991 24.746 32.1195 25.6867 33.1435C26.6358 34.1766 27.9252 34.6352 29.1883 34.5602C31.7436 34.4085 33.8591 32.1879 33.8591 29.0771V27.3931V27.3142L33.8527 27.2357C33.6127 24.2719 31.6408 22.1591 29.0727 22.1591C26.5046 22.1591 24.5327 24.2719 24.2927 27.2357Z" stroke="white" stroke-width="3.9"/>
<rect x="0.709091" y="0.709091" width="37.5818" height="37.5818" stroke="white" stroke-width="1.41818"/>
</svg>
