<svg width="47" height="47" viewBox="0 0 47 47" fill="none" xmlns="http://www.w3.org/2000/svg">
<rect x="0.5" y="0.5" width="46" height="46" rx="23" fill="black"/>
<path d="M24.2 19.26C25.3004 18.1356 26.7332 17.4 28.4 17.4C30.1504 17.4 31.8292 18.0954 33.0669 19.3331C34.3046 20.5708 35 22.2496 35 24V33H32.6V24C32.6 22.8861 32.1575 21.8178 31.3699 21.0302C30.5822 20.2425 29.5139 19.8 28.4 19.8C27.2861 19.8 26.2178 20.2425 25.4302 21.0302C24.6425 21.8178 24.2 22.8861 24.2 24V33H21.8V18H24.2V19.26ZM15.8 15.6C15.3226 15.6 14.8648 15.4104 14.5272 15.0728C14.1896 14.7352 14 14.2774 14 13.8C14 13.3226 14.1896 12.8648 14.5272 12.5272C14.8648 12.1896 15.3226 12 15.8 12C16.2774 12 16.7352 12.1896 17.0728 12.5272C17.4104 12.8648 17.6 13.3226 17.6 13.8C17.6 14.2774 17.4104 14.7352 17.0728 15.0728C16.7352 15.4104 16.2774 15.6 15.8 15.6ZM14.6 18H17V33H14.6V18Z" fill="white"/>
<rect x="0.5" y="0.5" width="46" height="46" rx="23" stroke="black"/>
</svg>
