<svg width="74" height="92" viewBox="0 0 74 92" fill="none" xmlns="http://www.w3.org/2000/svg">
<rect width="74" height="92" rx="10" fill="white"/>
<path d="M49.6667 41.3867V54.6133C49.6667 56.64 49.48 58.08 49 59.1067C49 59.12 48.9866 59.1467 48.9733 59.16C48.68 59.5333 48.2933 59.72 47.84 59.72C47.1333 59.72 46.28 59.2533 45.36 58.2667C44.2667 57.0933 42.5866 57.1867 41.6266 58.4667L40.28 60.2533C39.7467 60.9733 39.04 61.3333 38.3333 61.3333C37.6267 61.3333 36.92 60.9733 36.3866 60.2533L35.0267 58.4533C34.08 57.1867 32.4133 57.0933 31.32 58.2533L31.3066 58.2667C29.8 59.88 28.4667 60.12 27.6934 59.16C27.68 59.1467 27.6667 59.12 27.6667 59.1067C27.1867 58.08 27 56.64 27 54.6133V41.3867C27 39.36 27.1867 37.92 27.6667 36.8933C27.6667 36.88 27.6667 36.8667 27.6934 36.8533C28.4534 35.88 29.8 36.12 31.3066 37.7333L31.32 37.7467C32.4133 38.9067 34.08 38.8133 35.0267 37.5467L36.3866 35.7467C36.92 35.0267 37.6267 34.6667 38.3333 34.6667C39.04 34.6667 39.7467 35.0267 40.28 35.7467L41.6266 37.5333C42.5866 38.8133 44.2667 38.9067 45.36 37.7333C46.28 36.7467 47.1333 36.28 47.84 36.28C48.2933 36.28 48.68 36.48 48.9733 36.8533C49 36.8667 49 36.88 49 36.8933C49.48 37.92 49.6667 39.36 49.6667 41.3867Z" stroke="#292D32" stroke-width="1.8" stroke-linecap="round" stroke-linejoin="round"/>
<path d="M33.6666 45.6667H44.3333" stroke="#292D32" stroke-width="1.8" stroke-linecap="round" stroke-linejoin="round"/>
<path d="M33.6666 50.3333H41.6666" stroke="#292D32" stroke-width="1.8" stroke-linecap="round" stroke-linejoin="round"/>
</svg>
