<svg width="40" height="40" viewBox="0 0 40 40" fill="none" xmlns="http://www.w3.org/2000/svg">
<path d="M32.5002 13.3333C34.8013 13.3333 36.6668 11.4679 36.6668 9.16667C36.6668 6.86548 34.8013 5 32.5002 5C30.199 5 28.3335 6.86548 28.3335 9.16667C28.3335 11.4679 30.199 13.3333 32.5002 13.3333Z" fill="white"/>
<path d="M32.5002 13.3333C34.8013 13.3333 36.6668 11.4679 36.6668 9.16667C36.6668 6.86548 34.8013 5 32.5002 5C30.199 5 28.3335 6.86548 28.3335 9.16667C28.3335 11.4679 30.199 13.3333 32.5002 13.3333Z" fill="white"/>
<path d="M34.5335 15.5166C33.3668 15.8833 32.0835 15.9499 30.7502 15.6166C28.5168 15.0333 26.7002 13.2499 26.0835 11.0166C25.7835 9.93325 25.7668 8.86659 25.9502 7.89992C26.1668 6.83325 25.4168 5.83325 24.3502 5.83325H11.6668C6.66683 5.83325 3.3335 8.33325 3.3335 14.1666V25.8333C3.3335 31.6666 6.66683 34.1666 11.6668 34.1666H28.3335C33.3335 34.1666 36.6668 31.6666 36.6668 25.8333V17.0999C36.6668 15.9999 35.6002 15.1666 34.5335 15.5166ZM25.8668 18.5833L23.9002 20.1499C22.8002 21.0333 21.4002 21.4666 20.0002 21.4666C18.6002 21.4666 17.1835 21.0333 16.1002 20.1499L10.8835 15.9833C10.3502 15.5499 10.2668 14.7499 10.6835 14.2166C11.1168 13.6833 11.9002 13.5833 12.4335 14.0166L17.6502 18.1833C18.9168 19.1999 21.0668 19.1999 22.3335 18.1833L24.3002 16.6166C24.8335 16.1833 25.6335 16.2666 26.0502 16.8166C26.4835 17.3499 26.4002 18.1499 25.8668 18.5833Z" fill="white"/>
</svg>
