<svg width="32" height="32" viewBox="0 0 32 32" fill="none" xmlns="http://www.w3.org/2000/svg">
<path d="M12.0002 12L18.0002 16L24.0002 12M4.00016 18H6.66683M1.3335 14H6.66683" stroke="black" stroke-width="1.5" stroke-linecap="round" stroke-linejoin="round"/>
<path d="M6.66699 9.99984V9.33317C6.66699 8.62593 6.94794 7.94765 7.44804 7.44755C7.94814 6.94746 8.62641 6.6665 9.33366 6.6665H26.667C27.3742 6.6665 28.0525 6.94746 28.5526 7.44755C29.0527 7.94765 29.3337 8.62593 29.3337 9.33317V22.6665C29.3337 23.3737 29.0527 24.052 28.5526 24.5521C28.0525 25.0522 27.3742 25.3332 26.667 25.3332H9.33366C8.62641 25.3332 7.94814 25.0522 7.44804 24.5521C6.94794 24.052 6.66699 23.3737 6.66699 22.6665V21.9998" stroke="black" stroke-width="1.5" stroke-linecap="round"/>
</svg>
