<svg width="36" height="36" viewBox="0 0 36 36" fill="none" xmlns="http://www.w3.org/2000/svg">
<path d="M25.6834 14.9816L18.591 22.7465C18.5066 22.8387 18.4151 22.9041 18.3166 22.9428C18.2181 22.9816 18.1126 23.0006 18 23C17.8874 23 17.7819 22.9809 17.6834 22.9428C17.5849 22.9047 17.4934 22.8393 17.409 22.7465L10.2955 14.9816C10.0985 14.7665 10 14.4977 10 14.1751C10 13.8525 10.1055 13.576 10.3166 13.3456C10.5277 13.1152 10.774 13 11.0554 13C11.3369 13 11.5831 13.1152 11.7942 13.3456L18 20.1198L24.2058 13.3456C24.4028 13.1306 24.6457 13.023 24.9345 13.023C25.2232 13.023 25.4729 13.1382 25.6834 13.3687C25.8945 13.5991 26 13.8679 26 14.1751C26 14.4823 25.8945 14.7511 25.6834 14.9816Z" fill="black"/>
<rect x="0.5" y="0.5" width="35" height="35" rx="17.5" stroke="black" stroke-opacity="0.2"/>
</svg>
