<svg width="89" height="52" viewBox="0 0 89 52" fill="none" xmlns="http://www.w3.org/2000/svg">
<path d="M66.203 27.1196C66.8213 26.5012 66.8213 25.4987 66.203 24.8804L56.1267 14.8041C55.5084 14.1858 54.5059 14.1858 53.8876 14.8041C53.2692 15.4225 53.2692 16.425 53.8876 17.0433L62.8442 26L53.8876 34.9567C53.2692 35.575 53.2692 36.5775 53.8876 37.1959C54.5059 37.8142 55.5084 37.8142 56.1267 37.1958L66.203 27.1196ZM23.9167 27.5833L65.0834 27.5833L65.0834 24.4167L23.9167 24.4167L23.9167 27.5833Z" fill="black"/>
<rect x="88" y="51" width="87" height="50" rx="25" transform="rotate(180 88 51)" stroke="black" stroke-opacity="0.28" stroke-width="2"/>
</svg>
