<svg width="89" height="52" viewBox="0 0 89 52" fill="none" xmlns="http://www.w3.org/2000/svg">
<rect width="89" height="52" rx="26" fill="white"/>
<path d="M22.7972 24.8804C22.1789 25.4988 22.1789 26.5013 22.7972 27.1196L32.8735 37.1959C33.4918 37.8142 34.4944 37.8142 35.1127 37.1959C35.731 36.5775 35.731 35.575 35.1127 34.9567L26.156 26L35.1127 17.0433C35.731 16.425 35.731 15.4225 35.1127 14.8041C34.4944 14.1858 33.4918 14.1858 32.8735 14.8041L22.7972 24.8804ZM65.0835 24.4167L23.9168 24.4167L23.9168 27.5833L65.0835 27.5833L65.0835 24.4167Z" fill="black"/>
<rect x="1" y="1" width="87" height="50" rx="25" stroke="black" stroke-opacity="0.28" stroke-width="2"/>
</svg>
