<svg width="89" height="52" viewBox="0 0 89 52" fill="none" xmlns="http://www.w3.org/2000/svg">
<rect x="89" y="52" width="89" height="52" rx="26" transform="rotate(180 89 52)" fill="white"/>
<path d="M66.2028 27.1196C66.8211 26.5012 66.8211 25.4987 66.2028 24.8804L56.1265 14.8041C55.5082 14.1858 54.5056 14.1858 53.8873 14.8041C53.269 15.4225 53.269 16.425 53.8873 17.0433L62.844 26L53.8873 34.9567C53.269 35.575 53.269 36.5775 53.8873 37.1959C54.5056 37.8142 55.5082 37.8142 56.1265 37.1958L66.2028 27.1196ZM23.9165 27.5833L65.0832 27.5833L65.0832 24.4167L23.9165 24.4167L23.9165 27.5833Z" fill="black"/>
<rect x="88" y="51" width="87" height="50" rx="25" transform="rotate(180 88 51)" stroke="black" stroke-opacity="0.28" stroke-width="2"/>
</svg>
