<svg width="89" height="52" viewBox="0 0 89 52" fill="none" xmlns="http://www.w3.org/2000/svg">
<path d="M66.2032 27.1196C66.8216 26.5012 66.8216 25.4987 66.2032 24.8804L56.127 14.8041C55.5086 14.1858 54.5061 14.1858 53.8878 14.8041C53.2695 15.4225 53.2695 16.425 53.8878 17.0433L62.8445 26L53.8878 34.9567C53.2695 35.575 53.2695 36.5775 53.8878 37.1959C54.5061 37.8142 55.5086 37.8142 56.127 37.1958L66.2032 27.1196ZM23.917 27.5833L65.0837 27.5833L65.0837 24.4167L23.917 24.4167L23.917 27.5833Z" fill="black"/>
<rect x="88" y="51" width="87" height="50" rx="25" transform="rotate(180 88 51)" stroke="#D0D0D0" stroke-width="2"/>
</svg>
