<svg width="25" height="25" viewBox="0 0 25 25" fill="none" xmlns="http://www.w3.org/2000/svg">
<path d="M15.0338 1.74149C15.0677 1.61457 15.1263 1.4956 15.2063 1.39135C15.2862 1.2871 15.3859 1.19963 15.4997 1.13392C15.6134 1.06822 15.739 1.02558 15.8693 1.00843C15.9995 0.991281 16.1319 0.999965 16.2588 1.03399C18.1126 1.51767 19.804 2.48679 21.1587 3.84153C22.5135 5.19627 23.4826 6.88766 23.9663 8.74149C24.0003 8.86838 24.009 9.00073 23.9918 9.13097C23.9747 9.26122 23.932 9.38681 23.8663 9.50058C23.8006 9.61434 23.7131 9.71404 23.6089 9.79398C23.5047 9.87392 23.3857 9.93254 23.2588 9.96649C23.1743 9.98867 23.0873 10 23 10.0002C22.7796 10.0002 22.5655 9.92743 22.3907 9.79316C22.216 9.65889 22.0905 9.47067 22.0338 9.25774C21.6393 7.74439 20.8483 6.36362 19.7425 5.25776C18.6366 4.15191 17.2559 3.36097 15.7425 2.96649C15.6155 2.93267 15.4964 2.87415 15.392 2.79427C15.2876 2.71438 15.2 2.6147 15.1342 2.50093C15.0683 2.38715 15.0256 2.26151 15.0084 2.1312C14.9911 2.00089 14.9998 1.86846 15.0338 1.74149ZM14.7425 6.96649C16.4663 7.42649 17.5738 8.53399 18.0338 10.2577C18.0905 10.4707 18.216 10.6589 18.3907 10.7932C18.5655 10.9274 18.7796 11.0002 19 11.0002C19.0873 11 19.1743 10.9887 19.2588 10.9665C19.3857 10.9325 19.5047 10.8739 19.6089 10.794C19.7131 10.714 19.8006 10.6143 19.8663 10.5006C19.932 10.3868 19.9747 10.2612 19.9918 10.131C20.009 10.0007 20.0003 9.86838 19.9663 9.74149C19.3263 7.34649 17.6538 5.67398 15.2588 5.03398C15.1319 5.00009 14.9995 4.99151 14.8693 5.00876C14.7391 5.026 14.6136 5.06872 14.4999 5.13447C14.3862 5.20023 14.2866 5.28773 14.2067 5.39199C14.1268 5.49625 14.0683 5.61522 14.0344 5.74211C14.0005 5.869 13.9919 6.00132 14.0092 6.13153C14.0264 6.26173 14.0691 6.38726 14.1349 6.50096C14.2006 6.61465 14.2881 6.71428 14.3924 6.79415C14.4967 6.87403 14.6156 6.93259 14.7425 6.96649ZM24.985 18.8852C24.7621 20.579 23.9303 22.1338 22.6449 23.2591C21.3595 24.3844 19.7084 25.0033 18 25.0002C8.07501 25.0002 1.13108e-05 16.9252 1.13108e-05 7.00024C-0.00305116 5.29185 0.61587 3.64076 1.74118 2.35535C2.86649 1.06995 4.42122 0.238119 6.11501 0.0152353C6.54333 -0.0370635 6.97707 0.0505627 7.35149 0.265033C7.72592 0.479504 8.02094 0.809316 8.19251 1.20524L10.8325 7.09899V7.11399C10.9639 7.41705 11.0181 7.74793 10.9904 8.07708C10.9627 8.40623 10.8539 8.72339 10.6738 9.00024C10.6513 9.03399 10.6275 9.06524 10.6025 9.09649L8.00001 12.1815C8.93626 14.084 10.9263 16.0565 12.8538 16.9952L15.8963 14.4065C15.9261 14.3814 15.9574 14.358 15.99 14.3365C16.2666 14.152 16.5849 14.0394 16.916 14.0088C17.2471 13.9783 17.5806 14.0307 17.8863 14.1615L17.9025 14.169L23.7913 16.8077C24.1879 16.9787 24.5185 17.2735 24.7337 17.6479C24.9489 18.0224 25.037 18.4565 24.985 18.8852ZM23 18.6352H22.9863L17.1113 16.004L14.0675 18.5927C14.038 18.6177 14.0071 18.6411 13.975 18.6627C13.6872 18.8547 13.3545 18.9688 13.0094 18.9938C12.6644 19.0188 12.3187 18.9538 12.0063 18.8052C9.66501 17.674 7.33126 15.3577 6.19876 13.0415C6.0488 12.7313 5.9815 12.3876 6.0034 12.0438C6.0253 11.7 6.13565 11.3676 6.32376 11.079C6.34496 11.0451 6.36879 11.0129 6.39501 10.9827L9.00001 7.89399L6.37501 2.01899C6.37452 2.014 6.37452 2.00897 6.37501 2.00399C5.16283 2.16211 4.04986 2.75669 3.24453 3.67638C2.43919 4.59607 1.99674 5.77779 2.00001 7.00024C2.00464 11.2423 3.69184 15.3092 6.69142 18.3088C9.691 21.3084 13.758 22.9956 18 23.0002C19.2217 23.0044 20.4031 22.5635 21.3233 21.7599C22.2436 20.9563 22.8396 19.8451 23 18.634V18.6352Z" fill="black"/>
</svg>
