<svg width="40" height="40" viewBox="0 0 40 40" fill="none" xmlns="http://www.w3.org/2000/svg">
<path d="M29.3668 17.9166C28.6502 17.9166 28.0835 17.3333 28.0835 16.6333C28.0835 16.0166 27.4668 14.7333 26.4335 13.6166C25.4168 12.5333 24.3002 11.8999 23.3668 11.8999C22.6502 11.8999 22.0835 11.3166 22.0835 10.6166C22.0835 9.91659 22.6668 9.33325 23.3668 9.33325C25.0335 9.33325 26.7835 10.2333 28.3168 11.8499C29.7502 13.3666 30.6668 15.2499 30.6668 16.6166C30.6668 17.3333 30.0835 17.9166 29.3668 17.9166Z" fill="white"/>
<path d="M35.3834 17.9166C34.6668 17.9166 34.1001 17.3333 34.1001 16.6333C34.1001 10.7166 29.2834 5.91659 23.3834 5.91659C22.6668 5.91659 22.1001 5.33325 22.1001 4.63325C22.1001 3.93325 22.6668 3.33325 23.3668 3.33325C30.7001 3.33325 36.6668 9.29992 36.6668 16.6333C36.6668 17.3333 36.0834 17.9166 35.3834 17.9166Z" fill="white"/>
<path d="M18.4168 24.9166L15.3335 27.9999C14.6835 28.6499 13.6502 28.6499 12.9835 28.0166C12.8002 27.8333 12.6168 27.6666 12.4335 27.4833C10.7168 25.7499 9.16683 23.9333 7.7835 22.0333C6.41683 20.1333 5.31683 18.2333 4.51683 16.3499C3.7335 14.4499 3.3335 12.6333 3.3335 10.8999C3.3335 9.76658 3.5335 8.68325 3.9335 7.68325C4.3335 6.66659 4.96683 5.73325 5.85016 4.89992C6.91683 3.84992 8.0835 3.33325 9.31683 3.33325C9.7835 3.33325 10.2502 3.43325 10.6668 3.63325C11.1002 3.83325 11.4835 4.13325 11.7835 4.56659L15.6502 10.0166C15.9502 10.4333 16.1668 10.8166 16.3168 11.1833C16.4668 11.5333 16.5502 11.8833 16.5502 12.1999C16.5502 12.5999 16.4335 12.9999 16.2002 13.3833C15.9835 13.7666 15.6668 14.1666 15.2668 14.5666L14.0002 15.8833C13.8168 16.0666 13.7335 16.2833 13.7335 16.5499C13.7335 16.6833 13.7502 16.7999 13.7835 16.9333C13.8335 17.0666 13.8835 17.1666 13.9168 17.2666C14.2168 17.8166 14.7335 18.5333 15.4668 19.3999C16.2168 20.2666 17.0168 21.1499 17.8835 22.0333C18.0502 22.1999 18.2335 22.3666 18.4002 22.5333C19.0668 23.1833 19.0835 24.2499 18.4168 24.9166Z" fill="white"/>
<path d="M36.6167 30.5499C36.6167 31.0166 36.5333 31.4999 36.3667 31.9666C36.3167 32.0999 36.2667 32.2332 36.2 32.3666C35.9167 32.9666 35.55 33.5332 35.0667 34.0666C34.25 34.9666 33.35 35.6166 32.3333 36.0332C32.3167 36.0332 32.3 36.0499 32.2833 36.0499C31.3 36.4499 30.2333 36.6666 29.0833 36.6666C27.3833 36.6666 25.5667 36.2666 23.65 35.4499C21.7333 34.6332 19.8167 33.5332 17.9167 32.1499C17.2667 31.6666 16.6167 31.1832 16 30.6666L21.45 25.2166C21.9167 25.5666 22.3333 25.8332 22.6833 26.0166C22.7667 26.0499 22.8667 26.0999 22.9833 26.1499C23.1167 26.1999 23.25 26.2166 23.4 26.2166C23.6833 26.2166 23.9 26.1166 24.0833 25.9332L25.35 24.6832C25.7667 24.2666 26.1667 23.9499 26.55 23.7499C26.9333 23.5166 27.3167 23.3999 27.7333 23.3999C28.05 23.3999 28.3833 23.4666 28.75 23.6166C29.1167 23.7666 29.5 23.9832 29.9167 24.2666L35.4333 28.1832C35.8667 28.4832 36.1667 28.8332 36.35 29.2499C36.5167 29.6666 36.6167 30.0832 36.6167 30.5499Z" fill="white"/>
</svg>
