<svg width="31" height="32" viewBox="0 0 31 32" fill="none" xmlns="http://www.w3.org/2000/svg">
<path d="M28.8058 31.278C29.984 31.278 30.2006 30.3576 29.9608 29.6667C29.7288 28.9963 29.0327 28.4549 27.6689 27.8981C25.0211 26.8204 21.2932 25.8742 21.2932 25.5442C21.2932 25.2142 22.8916 25.4566 24.9773 25.0879C26.5603 24.8069 26.7098 24.2397 26.9109 23.2549C27.1507 22.0896 26.3334 21.2078 26.3334 21.2078C26.3334 21.2078 27.7385 20.6922 27.7385 19.0886C27.7385 17.485 26.1194 16.7657 26.1194 16.7657C26.1194 16.7657 26.782 16.361 26.9521 15.4174C27.1636 14.2546 26.3153 13.2234 25.1629 12.4525C24.191 11.8028 22.9586 11.2202 22.0434 10.867C21.2571 10.5628 20.6667 10.3488 18.7357 10.372C17.1811 10.39 16.4205 10.3436 16.3019 9.84604C16.2117 9.47479 16.5339 9.09065 16.8562 8.15736C17.2558 7.00752 18.2819 4.04268 16.4179 1.39752C15.7012 0.381739 13.845 0.397208 13.4686 0.750411C12.7518 1.4233 13.6851 2.76908 13.1875 5.17963C12.8446 6.84252 12.4321 7.9769 10.7435 9.25822C9.76894 9.99815 7.60847 11.2279 5.94043 13.2904C5.32168 14.0535 3.39324 13.9092 2.31558 13.7596C1.88504 13.7003 1.48027 13.9865 1.39519 14.4145C0.539255 18.6787 1.11933 23.1363 1.40808 24.8559C1.44172 25.0575 1.54946 25.2394 1.71017 25.3658C1.87089 25.4921 2.073 25.5539 2.27691 25.5391C3.23855 25.4721 4.86793 25.3689 5.37324 25.4256C6.3916 25.5391 8.48761 27.0653 11.3596 27.8774C13.9094 28.5993 17.5368 29.2671 19.1585 29.3573C20.7801 29.4475 27.6534 31.278 28.8058 31.278Z" fill="#FFC9A2"/>
</svg>
