<svg width="47" height="47" viewBox="0 0 47 47" fill="none" xmlns="http://www.w3.org/2000/svg">
<rect x="0.75" y="0.75" width="45.5" height="45.5" rx="22.75" fill="black"/>
<path fill-rule="evenodd" clip-rule="evenodd" d="M27.0128 14.0954C27.6046 13.9926 28.2663 13.9584 28.8895 14.0659C29.9998 14.2565 31.0284 14.7805 31.8431 15.5704C32.3733 15.5822 32.8954 15.4759 33.3571 15.3246C33.8032 15.1767 34.2316 14.9781 34.6339 14.7325L34.6443 14.7254C34.8118 14.612 35.0126 14.5609 35.2129 14.5809C35.4132 14.6008 35.6005 14.6905 35.7431 14.8348C35.8857 14.979 35.9748 15.169 35.9954 15.3724C36.016 15.5758 35.9667 15.7803 35.856 15.951C35.6153 16.3233 35.2792 16.9875 34.9036 17.7321L34.7234 18.0878C34.5083 18.5133 34.2873 18.9435 34.0815 19.3122C33.9524 19.5439 33.8141 19.7791 33.6745 19.9824V20.3062C33.6888 22.2429 33.3235 24.163 32.5998 25.9546C31.8761 27.7463 30.8086 29.3734 29.4595 30.7412C28.1105 32.1089 26.5069 33.1899 24.7424 33.921C22.9779 34.6521 21.0877 35.0186 19.1824 34.9993C16.4212 35.0018 13.7181 34.1933 11.3985 32.671C11.2327 32.562 11.1082 32.399 11.0453 32.2087C10.9825 32.0185 10.9851 31.8122 11.0526 31.6236C11.1201 31.435 11.2486 31.2753 11.417 31.1705C11.5855 31.0658 11.7839 31.0223 11.9799 31.0471C13.5821 31.2417 15.206 30.979 16.6695 30.2883C15.9555 29.9584 15.3168 29.4809 14.7943 28.8864C14.2718 28.2918 13.8768 27.5931 13.6346 26.8349C13.5884 26.6897 13.5799 26.5349 13.6098 26.3854C13.6398 26.2359 13.7072 26.0968 13.8055 25.9816L13.8171 25.9697C13.2269 25.4352 12.7538 24.7805 12.4287 24.0481C12.1035 23.3157 11.9336 22.522 11.9299 21.7185V21.6571C11.9298 21.4625 11.9927 21.2733 12.1089 21.1186C12.2251 20.964 12.3882 20.8525 12.5729 20.8014C12.1791 20.0029 11.9749 19.1217 11.9764 18.2285C11.9757 17.2158 12.2363 16.2207 12.7322 15.3423C12.8027 15.2176 12.9019 15.1122 13.0214 15.0352C13.1408 14.9582 13.2769 14.9119 13.4179 14.9003C13.5589 14.8886 13.7006 14.912 13.8307 14.9685C13.9608 15.0249 14.0755 15.1126 14.1648 15.2241C16.1988 17.771 19.1128 19.4324 22.3115 19.8689C22.2837 18.8054 22.5477 17.7551 23.0738 16.8354C23.6 15.9158 24.3675 15.1631 25.2906 14.6616C25.7581 14.4086 26.3767 14.2065 27.0139 14.0954H27.0128ZM13.8985 23.0162C14.1243 23.6622 14.5112 24.2374 15.0214 24.6857C15.5316 25.1341 16.1476 25.4401 16.809 25.5738C16.9996 25.6124 17.1721 25.7146 17.299 25.8641C17.4259 26.0137 17.5001 26.202 17.5097 26.3993C17.5193 26.5965 17.4638 26.7914 17.3521 26.953C17.2403 27.1145 17.0787 27.2335 16.8928 27.2911C16.5765 27.3892 16.2521 27.4565 15.923 27.4955C16.2803 27.964 16.7362 28.3451 17.2574 28.611C17.7785 28.8768 18.3517 29.0207 18.9347 29.032C19.1145 29.0354 19.2889 29.0953 19.4339 29.2034C19.579 29.3115 19.6876 29.4626 19.7449 29.6359C19.8022 29.8091 19.8054 29.9962 19.754 30.1714C19.7026 30.3466 19.5992 30.5014 19.4579 30.6145C18.2454 31.5842 16.8363 32.2684 15.3323 32.6178C16.5775 33.0229 17.8772 33.2282 19.1847 33.2265H19.1951C20.8696 33.2444 22.5308 32.923 24.0817 32.281C25.6326 31.639 27.042 30.6894 28.2277 29.4875C29.4133 28.2855 30.3514 26.8555 30.9872 25.2809C31.6229 23.7064 31.9435 22.0188 31.9303 20.3168V19.6845C31.9301 19.4693 32.007 19.2614 32.1466 19.0995C32.228 19.0061 32.3675 18.791 32.5652 18.4377C32.7513 18.1044 32.9582 17.7025 33.1734 17.2782L33.2117 17.2002C32.6043 17.3392 31.9789 17.3779 31.3594 17.3149C31.1499 17.2917 30.9557 17.1922 30.8128 17.0348C30.2281 16.3903 29.4494 15.9613 28.5988 15.8151C28.1699 15.7534 27.7339 15.7634 27.3081 15.8446C26.8931 15.9103 26.4901 16.039 26.1127 16.2264C25.3519 16.6396 24.7475 17.2978 24.3943 18.0977C24.0412 18.8977 23.9593 19.7942 24.1615 20.6466C24.1934 20.7806 24.194 20.9203 24.1634 21.0547C24.1327 21.189 24.0717 21.3142 23.9851 21.4203C23.8985 21.5265 23.7888 21.6106 23.6646 21.6661C23.5404 21.7215 23.4051 21.7468 23.2697 21.7398C19.697 21.5561 16.3193 20.0282 13.7939 17.4532C13.7448 17.709 13.7203 17.969 13.7206 18.2296V18.232C13.7193 18.8829 13.8764 19.5241 14.1779 20.0983C14.4793 20.6726 14.9159 21.1622 15.4486 21.5235C15.605 21.6305 15.7231 21.7862 15.7851 21.9672C15.8472 22.1482 15.8499 22.3447 15.7927 22.5273C15.7356 22.71 15.6218 22.8689 15.4684 22.9803C15.3149 23.0917 15.1301 23.1495 14.9416 23.1451C14.5906 23.1352 14.2414 23.0928 13.8985 23.0162Z" fill="white"/>
<rect x="0.75" y="0.75" width="45.5" height="45.5" rx="22.75" stroke="black" stroke-width="1.5"/>
</svg>
