<svg width="8" height="13" viewBox="0 0 8 13" fill="none" xmlns="http://www.w3.org/2000/svg">
<path d="M1.73617 0.987467L7.5599 6.30673C7.62902 6.37005 7.6781 6.43865 7.70713 6.51253C7.73616 6.58641 7.75045 6.66557 7.74999 6.75C7.74999 6.83443 7.7357 6.91359 7.70713 6.98747C7.67856 7.06135 7.62948 7.12995 7.5599 7.19327L1.73617 12.5284C1.57488 12.6761 1.37327 12.75 1.13134 12.75C0.8894 12.75 0.682028 12.6708 0.509217 12.5125C0.336406 12.3542 0.250001 12.1695 0.250001 11.9584C0.250001 11.7474 0.336406 11.5627 0.509217 11.4044L5.58985 6.75L0.509216 2.09565C0.347926 1.94789 0.267281 1.76573 0.267281 1.54916C0.267281 1.33259 0.353686 1.14536 0.526497 0.987467C0.699307 0.829157 0.90092 0.750001 1.13133 0.750001C1.36175 0.750001 1.56336 0.829156 1.73617 0.987467Z" fill="white"/>
</svg>
