<svg width="74" height="92" viewBox="0 0 74 92" fill="none" xmlns="http://www.w3.org/2000/svg">
<rect width="74" height="92" rx="10" fill="white"/>
<path d="M31.6933 44.3467C30.9866 43.9867 30.2 43.8 29.4 43.8C23.16 44.24 23.16 53.32 29.4 53.76H44.1866C45.9866 53.7733 47.72 53.1067 49.04 51.8933C53.4266 48.0667 51.08 40.3733 45.3066 39.64C43.2266 27.1467 25.1866 31.8933 29.4666 43.8" stroke="black" stroke-width="1.5" stroke-miterlimit="10" stroke-linecap="round" stroke-linejoin="round"/>
<path d="M43.1333 40.2267C43.8266 39.88 44.5866 39.6933 45.36 39.68" stroke="#292D32" stroke-width="1.5" stroke-miterlimit="10" stroke-linecap="round" stroke-linejoin="round"/>
<path d="M30.5426 54L30.5497 61.0923L33.3852 58.2568" stroke="black" stroke-width="1.5" stroke-linecap="round" stroke-linejoin="round"/>
<path d="M38.5426 54L38.5497 61.0923L41.3852 58.2568" stroke="black" stroke-width="1.5" stroke-linecap="round" stroke-linejoin="round"/>
<path d="M46.5426 54L46.5497 61.0923L49.3852 58.2568" stroke="black" stroke-width="1.5" stroke-linecap="round" stroke-linejoin="round"/>
<path d="M30.5498 61.0921L27.7143 58.2566" stroke="black" stroke-width="1.5" stroke-linecap="round" stroke-linejoin="round"/>
<path d="M38.5498 61.0921L35.7143 58.2566" stroke="black" stroke-width="1.5" stroke-linecap="round" stroke-linejoin="round"/>
<path d="M46.5498 61.0921L43.7143 58.2566" stroke="black" stroke-width="1.5" stroke-linecap="round" stroke-linejoin="round"/>
</svg>
